<svg id="Layer_1" data-name="Layer 1" xmlns="http://www.w3.org/2000/svg" viewBox="0 0 1021.77 1013.16"><defs><style>.cls-1{fill:none;}.cls-2{fill:#b6aea2;}.cls-3{fill:#14595b;stroke:#14595b;stroke-miterlimit:10;stroke-width:4px;}.cls-4{fill:#1f7271;}.cls-5{fill:#2fafa5;}.cls-6{fill:#22837e;}.cls-7{fill:#1a6767;}</style></defs><title>aclogoA</title><rect class="cls-1" width="1021.77" height="1013.16"/><path class="cls-2" d="M796.13,525.38a78.31,78.31,0,0,0-42.25-12q-16,0-37,7-15.5,4.5-22.5,4.5a19.71,19.71,0,0,1-13.75-5.25,16.62,16.62,0,0,1-5.75-12.75,19.63,19.63,0,0,1,19.5-19.5q7,0,22.5,4.5,21,7,37,7a82.28,82.28,0,0,0,42.25-11.25,85,85,0,0,0,30.75-30.75,82.1,82.1,0,0,0,11.5-42.5,80.38,80.38,0,0,0-11.5-41.5,88.46,88.46,0,0,0-31-31.25,80.08,80.08,0,0,0-42-11.75h-70q-48,0-88.75,23.5a173.45,173.45,0,0,0-57,52.38,77.64,77.64,0,0,0-10.52-34.31,71,71,0,0,0-29.22-27.75,72.87,72.87,0,0,0-39.5-11,79.69,79.69,0,0,0-32.75,7,76,76,0,0,0-27.25,20.5l-191.5,194a83.62,83.62,0,0,0-17,26,76.66,76.66,0,0,0-6,29.5,74.67,74.67,0,0,0,6,29.25,84.17,84.17,0,0,0,17,25.75,75.77,75.77,0,0,0,26,17.25,82.07,82.07,0,0,0,30.5,5.75,80.7,80.7,0,0,0,30-5.75,75.91,75.91,0,0,0,26-17.25l88-86c1-1.32,2.16-1.67,3.5-1a3.6,3.6,0,0,1,2,3.5l-.5,1.5-30.5,46.5q6.5,26,26.75,42.25t50.25,16.25a75.59,75.59,0,0,0,38.25-10.5,82.59,82.59,0,0,0,29.5-28.75,73.55,73.55,0,0,0,11.25-39.25v-2.48a184.49,184.49,0,0,0,56,53.41,162.29,162.29,0,0,0,87,24.75h72.5a80,80,0,0,0,42-11.75,88.22,88.22,0,0,0,31-31.25,80.28,80.28,0,0,0,11.5-41.5,84.87,84.87,0,0,0-11.5-43A90,90,0,0,0,796.13,525.38ZM753.88,664.89H681.39a143.39,143.39,0,0,1-76.48-21.76,165.66,165.66,0,0,1-50-47.68l-36.52-53.51v67.25a53.38,53.38,0,0,1-8.27,28.75,63.14,63.14,0,0,1-22.46,21.92,55.4,55.4,0,0,1-28.27,7.83c-15.46,0-27.8-3.87-37.73-11.84a55.16,55.16,0,0,1-17.37-23.58L431,591.49l2.35-7v-3.25a23.77,23.77,0,0,0-12.89-21.3l-.23-.12a22.92,22.92,0,0,0-10.15-2.4A22.41,22.41,0,0,0,393.24,565l-87.5,85.52a56.51,56.51,0,0,1-19.2,12.79,61.22,61.22,0,0,1-22.65,4.34,62.17,62.17,0,0,1-23.11-4.33,56.27,56.27,0,0,1-19.09-12.65,64.8,64.8,0,0,1-12.87-19.53,55.1,55.1,0,0,1-4.43-21.49,57.22,57.22,0,0,1,4.49-21.9,64.18,64.18,0,0,1,12.88-19.71L413.65,373.73l.48-.57A56.66,56.66,0,0,1,434.28,358a60.36,60.36,0,0,1,24.62-5.28c10.92,0,20.36,2.6,28.86,7.94l.74.46.76.4a51,51,0,0,1,21.13,20.11,58.18,58.18,0,0,1,7.8,25.57l4.06,56.88,32.36-47a156.29,156.29,0,0,1,129.27-67.17h70a59.77,59.77,0,0,1,31.68,8.9,69,69,0,0,1,24.1,24.28,60.16,60.16,0,0,1,8.73,31.32,61.91,61.91,0,0,1-8.72,32.33,65.7,65.7,0,0,1-23.62,23.65,62.83,62.83,0,0,1-32.16,8.52c-8.47,0-18.79-2-30.67-6l-.37-.12-.36-.11c-12.63-3.66-21.29-5.29-28.1-5.29a39.62,39.62,0,0,0-39.5,39.5,36.45,36.45,0,0,0,12.26,27.51,39.7,39.7,0,0,0,27.24,10.51c6.81,0,15.47-1.64,28.08-5.3l.75-.23c11.88-4,22.2-6,30.67-6a58.18,58.18,0,0,1,31.67,9,70.45,70.45,0,0,1,24,25,65.37,65.37,0,0,1,8.84,33,60,60,0,0,1-8.73,31.33A68.91,68.91,0,0,1,785.58,656,59.83,59.83,0,0,1,753.88,664.89Z"/><path class="cls-3" d="M790.84,533.87a67.8,67.8,0,0,0-37-10.48c-9.55,0-20.93,2.18-33.84,6.48l-.37.12c-11.51,3.34-19.54,4.9-25.29,4.9a29.91,29.91,0,0,1-20.5-7.87,26.71,26.71,0,0,1-9-20.13,29.63,29.63,0,0,1,29.55-29.5c5.75,0,13.78,1.55,25.29,4.89l.19.06.18.06c12.91,4.3,24.29,6.49,33.84,6.49a72.67,72.67,0,0,0,37.2-9.89,75.5,75.5,0,0,0,27.18-27.21,71.73,71.73,0,0,0,10.12-37.4A69.88,69.88,0,0,0,818.28,378a79,79,0,0,0-27.55-27.77,69.61,69.61,0,0,0-36.84-10.31h-70a166.33,166.33,0,0,0-137.5,71.54l-16.17,23.48-2-28.44a68.09,68.09,0,0,0-9.17-29.94,60.74,60.74,0,0,0-25.2-23.93l-.38-.2-.37-.23c-10.14-6.37-21.32-9.47-34.18-9.47a70.21,70.21,0,0,0-28.69,6.14,66.45,66.45,0,0,0-23.69,17.85l-.24.28L214.57,561.16A74.57,74.57,0,0,0,199.64,584a67,67,0,0,0-5.25,25.68,65.07,65.07,0,0,0,5.22,25.37,74.47,74.47,0,0,0,14.93,22.64,66.11,66.11,0,0,0,22.54,15,72.15,72.15,0,0,0,26.81,5,70.83,70.83,0,0,0,26.32-5,66.06,66.06,0,0,0,22.6-15l87.7-85.7a12.47,12.47,0,0,1,9.61-4.56,12.73,12.73,0,0,1,5.68,1.35l.15.07a13.63,13.63,0,0,1,7.44,12.33v1.6L422,587.06l-28.73,43.8a65.22,65.22,0,0,0,22.15,32.79c11.77,9.45,26.16,14,44,14a65.11,65.11,0,0,0,33.26-9.16,73,73,0,0,0,26-25.34,63,63,0,0,0,9.76-34V574.33l18.26,26.76a175.29,175.29,0,0,0,53,50.54,153.1,153.1,0,0,0,81.72,23.26h72.5a69.53,69.53,0,0,0,36.84-10.32,78.8,78.8,0,0,0,27.54-27.78,69.92,69.92,0,0,0,10.12-36.4,75.25,75.25,0,0,0-10.17-38A80.36,80.36,0,0,0,790.84,533.87Zm18.81,97.85A68.91,68.91,0,0,1,785.56,656a59.76,59.76,0,0,1-31.68,8.89H681.39a143.39,143.39,0,0,1-76.48-21.76,165.66,165.66,0,0,1-50-47.68l-36.52-53.51v67.25a53.38,53.38,0,0,1-8.27,28.75,63.14,63.14,0,0,1-22.46,21.92,55.4,55.4,0,0,1-28.27,7.83c-15.46,0-27.8-3.87-37.73-11.84a55.16,55.16,0,0,1-17.37-23.58L431,591.49l2.35-7v-3.25a23.77,23.77,0,0,0-12.89-21.3l-.23-.12a22.92,22.92,0,0,0-10.15-2.4A22.41,22.41,0,0,0,393.24,565l-87.5,85.52a56.51,56.51,0,0,1-19.2,12.79,61.22,61.22,0,0,1-22.65,4.34,62.17,62.17,0,0,1-23.11-4.33,56.27,56.27,0,0,1-19.09-12.65,64.8,64.8,0,0,1-12.87-19.53,55.1,55.1,0,0,1-4.43-21.49,57.22,57.22,0,0,1,4.49-21.9,64.18,64.18,0,0,1,12.88-19.71L413.65,373.73l.48-.57A56.66,56.66,0,0,1,434.28,358a60.36,60.36,0,0,1,24.62-5.28c10.92,0,20.36,2.6,28.86,7.94l.74.46.76.4a51,51,0,0,1,21.13,20.11,58.18,58.18,0,0,1,7.8,25.57l4.06,56.88,32.36-47a156.29,156.29,0,0,1,129.27-67.17h70a59.77,59.77,0,0,1,31.68,8.9,69,69,0,0,1,24.1,24.28,60.16,60.16,0,0,1,8.73,31.32,61.91,61.91,0,0,1-8.72,32.33,65.7,65.7,0,0,1-23.62,23.65,62.83,62.83,0,0,1-32.16,8.52c-8.47,0-18.79-2-30.67-6l-.37-.12-.36-.11c-12.63-3.66-21.29-5.29-28.1-5.29a39.62,39.62,0,0,0-39.5,39.5,36.45,36.45,0,0,0,12.26,27.51,39.7,39.7,0,0,0,27.24,10.51c6.81,0,15.47-1.64,28.08-5.3l.75-.23c11.88-4,22.2-6,30.67-6a58.18,58.18,0,0,1,31.67,9,70.45,70.45,0,0,1,24,25,65.37,65.37,0,0,1,8.84,33A60,60,0,0,1,809.65,631.72Z"/><path class="cls-1" d="M809.54,567.36a65.37,65.37,0,0,1,8.84,33,60,60,0,0,1-8.73,31.33A68.91,68.91,0,0,1,785.56,656a59.76,59.76,0,0,1-31.68,8.89H681.39a143.39,143.39,0,0,1-76.48-21.76,165.66,165.66,0,0,1-50-47.68l-36.52-53.48v67.25a53.38,53.38,0,0,1-8.27,28.75,63.14,63.14,0,0,1-22.46,21.92,55.4,55.4,0,0,1-28.27,7.83c-15.46,0-27.8-3.87-37.73-11.84a55.16,55.16,0,0,1-17.37-23.58L431,591.49l2.35-7v-3.25a23.77,23.77,0,0,0-12.89-21.3l-.23-.12a22.92,22.92,0,0,0-10.15-2.4A22.41,22.41,0,0,0,393.24,565l-87.5,85.52a56.51,56.51,0,0,1-19.2,12.79,61.22,61.22,0,0,1-22.65,4.34,62.17,62.17,0,0,1-23.11-4.33,56.27,56.27,0,0,1-19.09-12.65,64.8,64.8,0,0,1-12.87-19.53,55.1,55.1,0,0,1-4.43-21.49,57.22,57.22,0,0,1,4.49-21.9,64.18,64.18,0,0,1,12.88-19.71L413.65,373.73l.48-.57A56.66,56.66,0,0,1,434.28,358a60.36,60.36,0,0,1,24.62-5.28c10.92,0,20.36,2.6,28.86,7.94l.74.46.76.4a51,51,0,0,1,21.13,20.11,58.18,58.18,0,0,1,7.8,25.57l4.06,56.88,32.36-47a156.29,156.29,0,0,1,129.27-67.17h70a59.77,59.77,0,0,1,31.68,8.9,69,69,0,0,1,24.1,24.28,60.16,60.16,0,0,1,8.73,31.32,61.91,61.91,0,0,1-8.72,32.33,65.7,65.7,0,0,1-23.62,23.65,62.83,62.83,0,0,1-32.16,8.52c-8.47,0-18.79-2-30.67-6l-.37-.12-.36-.11c-12.63-3.66-21.29-5.29-28.1-5.29a39.62,39.62,0,0,0-39.5,39.5,36.45,36.45,0,0,0,12.26,27.51,39.7,39.7,0,0,0,27.24,10.51c6.81,0,15.47-1.64,28.08-5.3l.75-.23c11.88-4,22.2-6,30.67-6a58.18,58.18,0,0,1,31.67,9A70.48,70.48,0,0,1,809.54,567.36Z"/><path class="cls-4" d="M509,493.92v13.67c0,.79-3.14,1.44-7,1.44s-7-.65-7-1.44V493.92c0-.8,3.13-1.45,7-1.45S509,493.12,509,493.92Z"/><path class="cls-5" d="M642.06,480.65v19.49c0,1.14-3.14,2.06-7,2.06s-7-.92-7-2.06V480.65c0-1.14,3.13-2.06,7-2.06S642.06,479.51,642.06,480.65Z"/><path class="cls-4" d="M376,464.17v38.37c0,2.24-3.13,4.06-7,4.06s-7-1.82-7-4.06V464.17c0-2.24,3.13-4.06,7-4.06S376,461.93,376,464.17Z"/><path class="cls-6" d="M409.23,442.21V542.26c0,3.2-3.13,5.8-7,5.8s-7-2.6-7-5.8V442.21c0-3.2,3.14-5.8,7-5.8S409.23,439,409.23,442.21Z"/><path class="cls-4" d="M575.53,484.5v47.72c0,2.79-3.13,5-7,5s-7-2.26-7-5V484.5c0-2.78,3.14-5,7-5S575.53,481.72,575.53,484.5Z"/><path class="cls-6" d="M608.8,469.24v42.91c0,2.5-3.13,4.53-7,4.53s-7-2-7-4.53V469.24c0-2.5,3.14-4.54,7-4.54S608.8,466.79,608.8,469.24Z"/><path class="cls-7" d="M542.27,472.07v72.65c0,2.32-3.13,4.2-7,4.2s-7-1.88-7-4.2V472.07c0-2.31,3.13-4.2,7-4.2S542.27,469.79,542.27,472.07Z"/><path class="cls-7" d="M342.7,488.16v29.72c0,1.73-3.13,3.14-7,3.14s-7-1.41-7-3.14V488.16c0-1.73,3.14-3.14,7-3.14S342.7,486.43,342.7,488.16Z"/><path class="cls-6" d="M475.75,485.94v30c0,1.75-3.13,3.17-7,3.17s-7-1.42-7-3.17v-30c0-1.76,3.14-3.18,7-3.18S475.75,484.18,475.75,485.94Z"/><path class="cls-5" d="M441.85,468.84v52c0,3-3.13,5.49-7,5.49s-7-2.47-7-5.49v-52c0-3,3.14-5.51,7-5.51S441.85,465.79,441.85,468.84Z"/></svg>